<svg xmlns="http://www.w3.org/2000/svg" viewBox="0 0 512 512" role="img" aria-label="Aplikasi POLYTA GLOBAL MANDIRI">
  <defs>
    <linearGradient id="appBackground" x1="0" y1="0" x2="1" y2="1">
      <stop offset="0" stop-color="#ffffff"/>
      <stop offset=".58" stop-color="#f4f4f1"/>
      <stop offset="1" stop-color="#d9dcda"/>
    </linearGradient>
    <linearGradient id="appBorder" x1="0" y1="0" x2="1" y2="1">
      <stop offset="0" stop-color="#34373c"/>
      <stop offset=".48" stop-color="#111216"/>
      <stop offset="1" stop-color="#020304"/>
    </linearGradient>
    <linearGradient id="logoMetal" x1="0" y1="0" x2="1" y2="1">
      <stop offset="0" stop-color="#4b4e54"/>
      <stop offset=".42" stop-color="#111216"/>
      <stop offset="1" stop-color="#020304"/>
    </linearGradient>
    <linearGradient id="logoBlue" x1="0" y1="0" x2="0" y2="1">
      <stop offset="0" stop-color="#6f8fe0"/>
      <stop offset=".48" stop-color="#4563b3"/>
      <stop offset="1" stop-color="#293f87"/>
    </linearGradient>
    <linearGradient id="logoRed" x1="0" y1="0" x2="0" y2="1">
      <stop offset="0" stop-color="#ff5660"/>
      <stop offset=".5" stop-color="#ef2631"/>
      <stop offset="1" stop-color="#b90f1d"/>
    </linearGradient>
    <linearGradient id="logoGreen" x1="0" y1="0" x2="0" y2="1">
      <stop offset="0" stop-color="#72d77b"/>
      <stop offset=".48" stop-color="#40b84e"/>
      <stop offset="1" stop-color="#168d2d"/>
    </linearGradient>
    <filter id="appShadow" x="-20%" y="-20%" width="140%" height="150%">
      <feDropShadow dx="0" dy="16" stdDeviation="18" flood-color="#050608" flood-opacity=".22"/>
    </filter>
  </defs>

  <rect x="30" y="30" width="452" height="452" rx="104" fill="url(#appBorder)" filter="url(#appShadow)"/>
  <rect x="42" y="42" width="428" height="428" rx="94" fill="url(#appBackground)"/>
  <path d="M69 84c44-38 108-42 175-42h132c52 0 94 42 94 94v14c-89-54-267-68-401-17z" fill="#fff" opacity=".7"/>

  <g transform="translate(67 67) scale(3.15)">
    <path d="M14 12h50v43h42v53h-8V63H64v45H14V55h42V20H14z" fill="url(#logoMetal)"/>
    <rect x="15" y="22" width="41" height="12" rx="6" fill="url(#logoBlue)"/>
    <rect x="22" y="63" width="34" height="37" fill="url(#logoRed)"/>
    <rect x="84" y="64" width="11" height="44" rx="5.5" fill="url(#logoGreen)"/>
    <path d="M17 15h43M24 66h30M86.5 67v35" fill="none" stroke="#fff" stroke-linecap="round" stroke-width="2" opacity=".36"/>
  </g>
</svg>
